<mxfile host="Electron" modified="2023-05-07T13:51:47.904Z" agent="Mozilla/5.0 (Windows NT 10.0; Win64; x64) AppleWebKit/537.36 (KHTML, like Gecko) draw.io/21.2.1 Chrome/112.0.5615.87 Electron/24.1.2 Safari/537.36" etag="zTmmBe9LFLOhudmYYKKP" version="21.2.1" type="device">
  <diagram name="Use Case Krams" id="IC939t0rPF30G8wXWYbp">
    <mxGraphModel dx="934" dy="601" grid="1" gridSize="10" guides="1" tooltips="1" connect="1" arrows="1" fold="1" page="1" pageScale="1" pageWidth="2336" pageHeight="1654" math="0" shadow="0">
      <root>
        <mxCell id="0" />
        <mxCell id="1" parent="0" />
        <mxCell id="rdlgY0shcIGF6bq6-XCd-112" value="" style="rounded=0;whiteSpace=wrap;html=1;fillColor=default;" vertex="1" parent="1">
          <mxGeometry x="820" y="80" width="580" height="620" as="geometry" />
        </mxCell>
        <mxCell id="rdlgY0shcIGF6bq6-XCd-76" value="" style="rounded=0;whiteSpace=wrap;html=1;fillColor=none;" vertex="1" parent="1">
          <mxGeometry x="1000" y="120" width="360" height="540" as="geometry" />
        </mxCell>
        <mxCell id="rdlgY0shcIGF6bq6-XCd-77" value="&lt;font style=&quot;font-size: 14px;&quot;&gt;GameEngine&lt;/font&gt;" style="text;html=1;align=center;verticalAlign=middle;resizable=0;points=[];autosize=1;strokeColor=none;fillColor=none;" vertex="1" parent="1">
          <mxGeometry x="1125" y="120" width="110" height="30" as="geometry" />
        </mxCell>
        <mxCell id="rdlgY0shcIGF6bq6-XCd-78" style="rounded=0;orthogonalLoop=1;jettySize=auto;html=1;entryX=0;entryY=0.5;entryDx=0;entryDy=0;" edge="1" source="rdlgY0shcIGF6bq6-XCd-79" target="rdlgY0shcIGF6bq6-XCd-80" parent="1">
          <mxGeometry relative="1" as="geometry">
            <mxPoint x="1050" y="170" as="targetPoint" />
          </mxGeometry>
        </mxCell>
        <mxCell id="rdlgY0shcIGF6bq6-XCd-87" style="rounded=0;orthogonalLoop=1;jettySize=auto;html=1;entryX=0;entryY=0.5;entryDx=0;entryDy=0;" edge="1" parent="1" source="rdlgY0shcIGF6bq6-XCd-79" target="rdlgY0shcIGF6bq6-XCd-81">
          <mxGeometry relative="1" as="geometry" />
        </mxCell>
        <mxCell id="rdlgY0shcIGF6bq6-XCd-101" style="rounded=0;orthogonalLoop=1;jettySize=auto;html=1;entryX=0;entryY=0.5;entryDx=0;entryDy=0;" edge="1" parent="1" source="rdlgY0shcIGF6bq6-XCd-79" target="rdlgY0shcIGF6bq6-XCd-99">
          <mxGeometry relative="1" as="geometry" />
        </mxCell>
        <mxCell id="rdlgY0shcIGF6bq6-XCd-102" style="rounded=0;orthogonalLoop=1;jettySize=auto;html=1;entryX=0;entryY=0.5;entryDx=0;entryDy=0;" edge="1" parent="1" source="rdlgY0shcIGF6bq6-XCd-79" target="rdlgY0shcIGF6bq6-XCd-100">
          <mxGeometry relative="1" as="geometry" />
        </mxCell>
        <mxCell id="rdlgY0shcIGF6bq6-XCd-79" value="Developer" style="shape=umlActor;verticalLabelPosition=bottom;verticalAlign=top;html=1;outlineConnect=0;" vertex="1" parent="1">
          <mxGeometry x="902.5" y="355" width="35" height="70" as="geometry" />
        </mxCell>
        <mxCell id="rdlgY0shcIGF6bq6-XCd-88" style="rounded=0;orthogonalLoop=1;jettySize=auto;html=1;exitX=1;exitY=0.5;exitDx=0;exitDy=0;entryX=0;entryY=0;entryDx=0;entryDy=0;dashed=1;" edge="1" parent="1" source="rdlgY0shcIGF6bq6-XCd-80" target="rdlgY0shcIGF6bq6-XCd-86">
          <mxGeometry relative="1" as="geometry" />
        </mxCell>
        <mxCell id="rdlgY0shcIGF6bq6-XCd-96" style="rounded=0;orthogonalLoop=1;jettySize=auto;html=1;exitX=0;exitY=0.5;exitDx=0;exitDy=0;entryX=1;entryY=0.5;entryDx=0;entryDy=0;" edge="1" parent="1" source="rdlgY0shcIGF6bq6-XCd-80" target="rdlgY0shcIGF6bq6-XCd-95">
          <mxGeometry relative="1" as="geometry" />
        </mxCell>
        <mxCell id="rdlgY0shcIGF6bq6-XCd-80" value="Spiel Entwicklung" style="ellipse;whiteSpace=wrap;html=1;fillColor=none;" vertex="1" parent="1">
          <mxGeometry x="1060" y="200" width="120" height="60" as="geometry" />
        </mxCell>
        <mxCell id="rdlgY0shcIGF6bq6-XCd-89" style="rounded=0;orthogonalLoop=1;jettySize=auto;html=1;exitX=1;exitY=0.5;exitDx=0;exitDy=0;dashed=1;entryX=0;entryY=0.5;entryDx=0;entryDy=0;" edge="1" parent="1" source="rdlgY0shcIGF6bq6-XCd-81" target="rdlgY0shcIGF6bq6-XCd-86">
          <mxGeometry relative="1" as="geometry">
            <mxPoint x="1250" y="390" as="targetPoint" />
          </mxGeometry>
        </mxCell>
        <mxCell id="rdlgY0shcIGF6bq6-XCd-113" style="rounded=0;orthogonalLoop=1;jettySize=auto;html=1;exitX=0;exitY=0.5;exitDx=0;exitDy=0;entryX=1;entryY=0.5;entryDx=0;entryDy=0;" edge="1" parent="1" source="rdlgY0shcIGF6bq6-XCd-81" target="rdlgY0shcIGF6bq6-XCd-97">
          <mxGeometry relative="1" as="geometry" />
        </mxCell>
        <mxCell id="rdlgY0shcIGF6bq6-XCd-81" value="Demonstrator Entwicklung" style="ellipse;whiteSpace=wrap;html=1;fillColor=none;" vertex="1" parent="1">
          <mxGeometry x="1060" y="310" width="120" height="60" as="geometry" />
        </mxCell>
        <mxCell id="rdlgY0shcIGF6bq6-XCd-90" style="rounded=0;orthogonalLoop=1;jettySize=auto;html=1;exitX=0.5;exitY=0;exitDx=0;exitDy=0;entryX=0.5;entryY=1;entryDx=0;entryDy=0;dashed=1;endArrow=none;endFill=0;startArrow=classic;startFill=1;" edge="1" parent="1" source="rdlgY0shcIGF6bq6-XCd-82" target="rdlgY0shcIGF6bq6-XCd-86">
          <mxGeometry relative="1" as="geometry" />
        </mxCell>
        <mxCell id="rdlgY0shcIGF6bq6-XCd-82" value="Autonomes Fahren" style="ellipse;whiteSpace=wrap;html=1;fillColor=none;" vertex="1" parent="1">
          <mxGeometry x="1220" y="500" width="120" height="60" as="geometry" />
        </mxCell>
        <mxCell id="rdlgY0shcIGF6bq6-XCd-86" value="Fahrzeuge implementieren" style="ellipse;whiteSpace=wrap;html=1;fillColor=none;" vertex="1" parent="1">
          <mxGeometry x="1220" y="360" width="120" height="60" as="geometry" />
        </mxCell>
        <mxCell id="rdlgY0shcIGF6bq6-XCd-95" value="&amp;lt;&amp;lt;system&amp;gt;&amp;gt;&lt;br&gt;Game" style="rounded=0;whiteSpace=wrap;html=1;" vertex="1" parent="1">
          <mxGeometry x="860" y="160" width="120" height="60" as="geometry" />
        </mxCell>
        <mxCell id="rdlgY0shcIGF6bq6-XCd-97" value="&amp;lt;&amp;lt;system&amp;gt;&amp;gt;&lt;br&gt;Demonstrator" style="rounded=0;whiteSpace=wrap;html=1;" vertex="1" parent="1">
          <mxGeometry x="860" y="240" width="120" height="60" as="geometry" />
        </mxCell>
        <mxCell id="rdlgY0shcIGF6bq6-XCd-103" style="rounded=0;orthogonalLoop=1;jettySize=auto;html=1;exitX=1;exitY=0.5;exitDx=0;exitDy=0;dashed=1;entryX=0;entryY=0.5;entryDx=0;entryDy=0;" edge="1" parent="1" source="rdlgY0shcIGF6bq6-XCd-99" target="rdlgY0shcIGF6bq6-XCd-86">
          <mxGeometry relative="1" as="geometry">
            <mxPoint x="1240" y="400" as="targetPoint" />
          </mxGeometry>
        </mxCell>
        <mxCell id="rdlgY0shcIGF6bq6-XCd-110" style="rounded=0;orthogonalLoop=1;jettySize=auto;html=1;exitX=0;exitY=0.5;exitDx=0;exitDy=0;entryX=1;entryY=0.5;entryDx=0;entryDy=0;" edge="1" parent="1" source="rdlgY0shcIGF6bq6-XCd-99" target="rdlgY0shcIGF6bq6-XCd-107">
          <mxGeometry relative="1" as="geometry" />
        </mxCell>
        <mxCell id="rdlgY0shcIGF6bq6-XCd-99" value="CGI Filmproduktion" style="ellipse;whiteSpace=wrap;html=1;fillColor=none;" vertex="1" parent="1">
          <mxGeometry x="1060" y="420" width="120" height="60" as="geometry" />
        </mxCell>
        <mxCell id="rdlgY0shcIGF6bq6-XCd-105" style="rounded=0;orthogonalLoop=1;jettySize=auto;html=1;exitX=1;exitY=0.5;exitDx=0;exitDy=0;entryX=0;entryY=1;entryDx=0;entryDy=0;dashed=1;" edge="1" parent="1" source="rdlgY0shcIGF6bq6-XCd-100" target="rdlgY0shcIGF6bq6-XCd-86">
          <mxGeometry relative="1" as="geometry" />
        </mxCell>
        <mxCell id="rdlgY0shcIGF6bq6-XCd-111" style="rounded=0;orthogonalLoop=1;jettySize=auto;html=1;exitX=0;exitY=0.5;exitDx=0;exitDy=0;entryX=1;entryY=0.5;entryDx=0;entryDy=0;" edge="1" parent="1" source="rdlgY0shcIGF6bq6-XCd-100" target="rdlgY0shcIGF6bq6-XCd-108">
          <mxGeometry relative="1" as="geometry" />
        </mxCell>
        <mxCell id="rdlgY0shcIGF6bq6-XCd-100" value="StÃ¤dteplanungs-Model" style="ellipse;whiteSpace=wrap;html=1;fillColor=none;" vertex="1" parent="1">
          <mxGeometry x="1060" y="530" width="120" height="60" as="geometry" />
        </mxCell>
        <mxCell id="rdlgY0shcIGF6bq6-XCd-107" value="&amp;lt;&amp;lt;system&amp;gt;&amp;gt;&lt;br&gt;Film" style="rounded=0;whiteSpace=wrap;html=1;" vertex="1" parent="1">
          <mxGeometry x="860" y="490" width="120" height="60" as="geometry" />
        </mxCell>
        <mxCell id="rdlgY0shcIGF6bq6-XCd-108" value="&amp;lt;&amp;lt;system&amp;gt;&amp;gt;&lt;br&gt;Stadtplanung" style="rounded=0;whiteSpace=wrap;html=1;" vertex="1" parent="1">
          <mxGeometry x="860" y="570" width="120" height="60" as="geometry" />
        </mxCell>
      </root>
    </mxGraphModel>
  </diagram>
</mxfile>
